<mxfile host="Electron" modified="2024-02-28T00:44:03.758Z" agent="Mozilla/5.0 (X11; Linux x86_64) AppleWebKit/537.36 (KHTML, like Gecko) draw.io/23.0.2 Chrome/120.0.6099.109 Electron/28.1.0 Safari/537.36" etag="wPMkfbXyX6xMQOs-Jj5G" version="23.0.2" type="device">
  <diagram name="Page-1" id="qlLvEvNDXRYnb2c6vkg-">
    <mxGraphModel dx="1182" dy="496" grid="1" gridSize="10" guides="1" tooltips="1" connect="1" arrows="1" fold="1" page="1" pageScale="1" pageWidth="1920" pageHeight="1200" math="0" shadow="0">
      <root>
        <mxCell id="0" />
        <mxCell id="1" parent="0" />
        <mxCell id="DxWZ3BrrVsxjorxZiYPi-1" value="Standardized Challenge Data Formats" style="swimlane;whiteSpace=wrap;html=1;fillColor=#6a00ff;fontColor=#ffffff;strokeColor=#3700CC;" parent="1" vertex="1">
          <mxGeometry x="20" y="20" width="830" height="300" as="geometry" />
        </mxCell>
        <mxCell id="DxWZ3BrrVsxjorxZiYPi-4" style="edgeStyle=orthogonalEdgeStyle;rounded=0;orthogonalLoop=1;jettySize=auto;html=1;" parent="DxWZ3BrrVsxjorxZiYPi-1" source="DxWZ3BrrVsxjorxZiYPi-2" target="DxWZ3BrrVsxjorxZiYPi-3" edge="1">
          <mxGeometry relative="1" as="geometry" />
        </mxCell>
        <mxCell id="DxWZ3BrrVsxjorxZiYPi-2" value="Ground Truth Model" style="rounded=0;whiteSpace=wrap;html=1;" parent="DxWZ3BrrVsxjorxZiYPi-1" vertex="1">
          <mxGeometry x="20" y="60" width="120" height="60" as="geometry" />
        </mxCell>
        <mxCell id="DxWZ3BrrVsxjorxZiYPi-8" style="edgeStyle=orthogonalEdgeStyle;rounded=0;orthogonalLoop=1;jettySize=auto;html=1;entryX=0;entryY=0.5;entryDx=0;entryDy=0;" parent="DxWZ3BrrVsxjorxZiYPi-1" source="DxWZ3BrrVsxjorxZiYPi-3" target="DxWZ3BrrVsxjorxZiYPi-5" edge="1">
          <mxGeometry relative="1" as="geometry">
            <Array as="points" />
          </mxGeometry>
        </mxCell>
        <mxCell id="DxWZ3BrrVsxjorxZiYPi-3" value="Simulated Data Acquisition" style="rounded=0;whiteSpace=wrap;html=1;" parent="DxWZ3BrrVsxjorxZiYPi-1" vertex="1">
          <mxGeometry x="220" y="60" width="120" height="60" as="geometry" />
        </mxCell>
        <mxCell id="DxWZ3BrrVsxjorxZiYPi-9" style="edgeStyle=orthogonalEdgeStyle;rounded=0;orthogonalLoop=1;jettySize=auto;html=1;" parent="DxWZ3BrrVsxjorxZiYPi-1" source="DxWZ3BrrVsxjorxZiYPi-5" target="DxWZ3BrrVsxjorxZiYPi-6" edge="1">
          <mxGeometry relative="1" as="geometry" />
        </mxCell>
        <mxCell id="DxWZ3BrrVsxjorxZiYPi-5" value="Participant Reconstruction Method" style="rounded=0;whiteSpace=wrap;html=1;" parent="DxWZ3BrrVsxjorxZiYPi-1" vertex="1">
          <mxGeometry x="420" y="60" width="120" height="60" as="geometry" />
        </mxCell>
        <mxCell id="DxWZ3BrrVsxjorxZiYPi-6" value="Validate Against Ground Truth" style="rounded=0;whiteSpace=wrap;html=1;" parent="DxWZ3BrrVsxjorxZiYPi-1" vertex="1">
          <mxGeometry x="620" y="60" width="120" height="60" as="geometry" />
        </mxCell>
        <mxCell id="MW2bSgltDlVsvLVt19dt-1" style="edgeStyle=orthogonalEdgeStyle;rounded=0;orthogonalLoop=1;jettySize=auto;html=1;dashed=1;" parent="DxWZ3BrrVsxjorxZiYPi-1" source="DxWZ3BrrVsxjorxZiYPi-14" edge="1">
          <mxGeometry relative="1" as="geometry">
            <mxPoint x="380" y="90" as="targetPoint" />
          </mxGeometry>
        </mxCell>
        <mxCell id="DxWZ3BrrVsxjorxZiYPi-14" value="&lt;p style=&quot;&quot;&gt;Provided Data:&lt;/p&gt;&lt;p style=&quot;&quot;&gt;This the format the data being given to the participant is provided in. This the recorded scan data from virtual microscopes, electrodes, etc. To learn about this format, read about the `Provided format`.&lt;/p&gt;" style="text;html=1;strokeColor=none;fillColor=none;align=left;verticalAlign=middle;whiteSpace=wrap;rounded=0;" parent="DxWZ3BrrVsxjorxZiYPi-1" vertex="1">
          <mxGeometry x="90" y="150" width="190" height="130" as="geometry" />
        </mxCell>
        <mxCell id="MW2bSgltDlVsvLVt19dt-5" style="edgeStyle=orthogonalEdgeStyle;rounded=0;orthogonalLoop=1;jettySize=auto;html=1;dashed=1;" parent="DxWZ3BrrVsxjorxZiYPi-1" source="MW2bSgltDlVsvLVt19dt-4" edge="1">
          <mxGeometry relative="1" as="geometry">
            <mxPoint x="580" y="90" as="targetPoint" />
          </mxGeometry>
        </mxCell>
        <mxCell id="MW2bSgltDlVsvLVt19dt-4" value="&lt;p style=&quot;&quot;&gt;Submission Data:&lt;/p&gt;&lt;p style=&quot;&quot;&gt;This is the format that describes how participants should define their reconstructions. To see more about this format, please read about the `Submission format`.&lt;/p&gt;" style="text;html=1;strokeColor=none;fillColor=none;align=left;verticalAlign=middle;whiteSpace=wrap;rounded=0;" parent="DxWZ3BrrVsxjorxZiYPi-1" vertex="1">
          <mxGeometry x="620" y="150" width="190" height="120" as="geometry" />
        </mxCell>
      </root>
    </mxGraphModel>
  </diagram>
</mxfile>
